[Header]
FileType HTR
DataType HTRS
FileVersion 1
NumSegments 2
NumFrames 30
DataFrameRate 24
EulerRotationOrder ZYX
CalibrationUnits mm
RotationUnits Degrees
GlobalAxisofGravity Y
BoneLengthAxis Y
ScaleFactor 1.0
[SegmentNames&Hierarchy]
joint1	GLOBAL
joint2	joint1
[BasePosition]
joint1	0	0	0	180	7.062250077e-031	92.43664825	1
joint2	0	0	0	180	-7.062250077e-031	92.43664825	1
[joint1]
1	12.82236004	0.5456323624	-0.5608327985	0	8.827812699e-032	-0	1.0
2	12.82236004	0.5456323624	-0.5608327985	0	8.827812699e-032	-0	1.0
3	12.82236004	0.5456323624	-0.5608327985	0	8.827812699e-032	-0	1.0
4	12.82236004	0.5456323624	-0.5608327985	0	8.827812699e-032	-0	1.0
5	12.82236004	0.5456323624	-0.5608327985	0	8.827812699e-032	-0	1.0
6	12.82236004	0.5456323624	-0.5608327985	0	8.827812699e-032	-0	1.0
7	12.82236004	0.5456323624	-0.5608327985	0	8.827812699e-032	-0	1.0
8	12.82236004	0.5456323624	-0.5608327985	0	8.827812699e-032	-0	1.0
9	12.82236004	0.5456323624	-0.5608327985	0	8.827812699e-032	-0	1.0
10	12.82236004	0.5456323624	-0.5608327985	0	8.827812699e-032	-0	1.0
11	12.82236004	0.5456323624	-0.5608327985	0	8.827812699e-032	-0	1.0
12	12.82236004	0.5456323624	-0.5608327985	0	8.827812699e-032	-0	1.0
13	12.82236004	0.5456323624	-0.5608327985	0	8.827812699e-032	-0	1.0
14	12.82236004	0.5456323624	-0.5608327985	0	8.827812699e-032	-0	1.0
15	12.82236004	0.5456323624	-0.5608327985	0	8.827812699e-032	-0	1.0
16	12.82236004	0.5456323624	-0.5608327985	0	8.827812699e-032	-0	1.0
17	12.82236004	0.5456323624	-0.5608327985	0	8.827812699e-032	-0	1.0
18	12.82236004	0.5456323624	-0.5608327985	0	8.827812699e-032	-0	1.0
19	12.82236004	0.5456323624	-0.5608327985	0	8.827812699e-032	-0	1.0
20	12.82236004	0.5456323624	-0.5608327985	0	8.827812699e-032	-0	1.0
21	12.82236004	0.5456323624	-0.5608327985	0	8.827812699e-032	-0	1.0
22	12.82236004	0.5456323624	-0.5608327985	0	8.827812699e-032	-0	1.0
23	12.82236004	0.5456323624	-0.5608327985	0	8.827812699e-032	-0	1.0
24	12.82236004	0.5456323624	-0.5608327985	0	8.827812699e-032	-0	1.0
25	12.82236004	0.5456323624	-0.5608327985	0	8.827812699e-032	-0	1.0
26	12.82236004	0.5456323624	-0.5608327985	0	8.827812699e-032	-0	1.0
27	12.82236004	0.5456323624	-0.5608327985	0	8.827812699e-032	-0	1.0
28	12.82236004	0.5456323624	-0.5608327985	0	8.827812699e-032	-0	1.0
29	12.82236004	0.5456323624	-0.5608327985	0	8.827812699e-032	-0	1.0
30	12.82236004	0.5456323624	-0.5608327985	0	8.827812699e-032	-0	1.0
[joint2]
1	31.99590302	1.361527681	1.05522372e-016	0	0	0	1.0
2	32.11538696	-1.446347475	1.316547016e-016	0	0	0	1.0
3	32.41886139	-8.578009605	2.075877113e-016	0	0	0	1.0
4	32.82403946	-18.09974098	3.29626286e-016	0	0	0	1.0
5	33.24873352	-28.07997513	4.940760122e-016	0	0	0	1.0
6	33.75992966	-40.09313202	6.972442761e-016	0	0	0	1.0
7	34.39024353	-54.90546799	9.3543947e-016	0	0	0	1.0
8	35.0059967	-69.3757019	1.204969907e-015	0	0	0	1.0
9	35.47357559	-80.36375427	1.502146758e-015	0	0	0	1.0
10	35.65921021	-84.72614288	1.823279924e-015	0	0	0	1.0
11	35.53244019	-81.74712372	2.164682482e-015	0	0	0	1.0
12	35.20789719	-74.12031555	2.522664864e-015	0	0	0	1.0
13	34.76921082	-63.81115723	2.893540781e-015	0	0	0	1.0
14	34.30001068	-52.78507614	3.273623099e-015	0	0	0	1.0
15	33.88394547	-43.00747681	3.659226378e-015	0	0	0	1.0
16	33.53119278	-34.71779633	4.046664754e-015	0	0	0	1.0
17	33.18599319	-26.60562706	4.432251939e-015	0	0	0	1.0
18	32.83307266	-18.31196976	4.812304187e-015	0	0	0	1.0
19	32.45715332	-9.477897644	5.183133518e-015	0	0	0	1.0
20	32.04294586	0.2560057342	5.54105703e-015	0	0	0	1.0
21	31.49778557	13.06720257	5.882388015e-015	0	0	0	1.0
22	30.83194733	28.714468	6.203441454e-015	0	0	0	1.0
23	30.18432808	43.93351746	6.500532331e-015	0	0	0	1.0
24	29.69379044	55.46121597	6.769974358e-015	0	0	0	1.0
25	29.49933243	60.03092194	7.008080402e-015	0	0	0	1.0
26	29.49933243	53.78770828	7.211165022e-015	0	0	0	1.0
27	29.49933243	38.90003967	7.375540235e-015	0	0	0	1.0
28	29.49933243	21.13088226	7.497518062e-015	0	0	0	1.0
29	29.49933243	6.243215084	7.573409673e-015	0	0	0	1.0
30	29.49933243	0	7.599527934e-015	0	0	0	1.0
[EndOfFile]
